HIERARCHY
ROOT hip
{
	OFFSET 0.000000 0.000000 0.000000 
	CHANNELS 6 Xposition Yposition Zposition Xrotation Zrotation Yrotation
	JOINT abdomen
	{
		OFFSET 0.000000 3.402643 0.000000 
		CHANNELS 3 Xrotation Zrotation Yrotation
		JOINT chest
		{
			OFFSET 0.000000 8.438565 -0.680529 
			CHANNELS 3 Xrotation Zrotation Yrotation
			JOINT neck
			{
				OFFSET 0.000000 10.207942 -0.272212 
				CHANNELS 3 Xrotation Zrotation Yrotation
				JOINT head
				{
					OFFSET 0.000000 3.130431 0.000000 
					CHANNELS 3 Xrotation Zrotation Yrotation
					End Site
					{
						OFFSET 0.000000 3.130435 0.000000 
					}
				}
			}
			JOINT lCollar
			{
				OFFSET 3.470700 6.669187 -0.816635 
				CHANNELS 3 Yrotation Zrotation Xrotation
				JOINT lShldr
				{
					OFFSET 3.198488 0.000000 0.000000 
					CHANNELS 3 Zrotation Yrotation Xrotation
					JOINT lForeArm
					{
						OFFSET 10.139888 0.000000 0.000000 
						CHANNELS 3 Yrotation Zrotation Xrotation
						JOINT lHand
						{
							OFFSET 8.370511 0.000000 0.000000 
							CHANNELS 3 Zrotation Yrotation Xrotation
							End Site
							{
								OFFSET 4.083176 0.000000 0.000000 
							}
						}
					}
				}
			}
			JOINT rCollar
			{
				OFFSET -3.470700 6.669187 -0.816635 
				CHANNELS 3 Yrotation Zrotation Xrotation
				JOINT rShldr
				{
					OFFSET -3.198488 0.000000 0.000000 
					CHANNELS 3 Zrotation Yrotation Xrotation
					JOINT rForeArm
					{
						OFFSET -10.139888 0.000000 0.000000 
						CHANNELS 3 Yrotation Zrotation Xrotation
						JOINT rHand
						{
							OFFSET -8.370511 0.000000 0.000000 
							CHANNELS 3 Zrotation Yrotation Xrotation
							End Site
							{
								OFFSET -4.083176 0.000000 0.000000 
							}
						}
					}
				}
			}
		}
	}
	JOINT lThigh
	{
		OFFSET 5.308129 -1.633274 1.361059 
		CHANNELS 3 Xrotation Zrotation Yrotation
		JOINT lShin
		{
			OFFSET -2.041588 -20.007561 0.000000 
			CHANNELS 3 Xrotation Zrotation Yrotation
			JOINT lFoot
			{
				OFFSET 0.000000 -19.190928 -1.224953 
				CHANNELS 3 Xrotation Yrotation Zrotation
				End Site
				{
					OFFSET 0.000000 -2.449906 4.627600 
				}
			}
		}
	}
	JOINT rThigh
	{
		OFFSET -5.308129 -1.633274 1.361059 
		CHANNELS 3 Xrotation Zrotation Yrotation
		JOINT rShin
		{
			OFFSET 2.041588 -20.007561 0.000000 
			CHANNELS 3 Xrotation Zrotation Yrotation
			JOINT rFoot
			{
				OFFSET 0.000000 -19.190928 -1.224953 
				CHANNELS 3 Xrotation Yrotation Zrotation
				End Site
				{
					OFFSET 0.000000 -2.449906 4.627600 
				}
			}
		}
	}
}
MOTION
Frames: 18
Frame Time: 0.011111
-20.040010 52.822620 0.256305 3.051417 -8.638631 81.333565 9.597133 -4.956594 4.620171 -17.789818 -1.764009 1.569150 -14.232281 1.449045 -0.282434 32.531601 -3.535761 -0.200713 -13.725516 -13.189672 -3.762996 -57.532158 -24.960871 7.058457 -49.442627 7.567774 7.926314 8.524705 12.647240 -45.022839 8.354301 9.292459 -1.514610 72.706825 16.879377 9.225474 50.122742 -7.737051 8.208475 -8.534408 -12.637552 15.365093 -11.452188 3.972885 12.339572 15.328294 -5.911137 -2.866869 -17.148798 -0.782871 -3.131802 -11.266088 -14.173381 -9.660175 60.190716 2.714999 8.136778 -9.963398 -8.771004 1.737711 
-19.542402 52.854542 0.169168 2.654610 -8.529943 81.687073 9.713799 -4.351075 4.195197 -17.672464 -1.739937 1.410457 -14.183542 1.454185 -0.221916 32.581944 -3.659695 -0.130036 -13.725516 -13.189672 -3.762996 -57.254276 -26.005419 6.979999 -49.172085 7.504757 7.819764 8.524705 12.647240 -45.149796 8.354301 9.292459 -1.514610 72.518593 17.414083 8.508089 50.144096 -7.745743 8.226584 -8.534408 -12.637552 15.169780 -10.609414 4.126888 12.173898 15.042851 -5.919895 -2.813075 -17.657330 -1.085263 -3.213120 -12.782505 -13.827014 -9.822380 60.924023 2.636914 8.190197 -11.168867 -9.037991 1.504850 
-19.066494 52.889336 0.082668 2.687764 -8.313107 82.126564 10.019336 -4.315809 3.598762 -17.818951 -1.649993 1.243011 -14.203201 1.473037 -0.227234 32.955383 -3.736284 -0.134417 -13.725516 -13.189672 -3.762996 -56.975605 -26.869120 6.928940 -48.994946 7.461578 7.752534 8.524705 12.647240 -45.110729 8.354301 9.292459 -1.514610 72.429657 17.706993 7.958148 50.278614 -7.768301 8.269604 -8.534408 -12.637552 15.179545 -9.632667 3.735877 12.015101 14.767190 -5.926136 -2.789048 -18.160040 -1.485137 -3.331167 -14.325239 -13.924465 -9.808548 61.167809 2.597819 8.226093 -12.852268 -8.961917 1.203927 
-18.586123 52.942001 -0.034791 3.055841 -8.123426 82.552429 10.197255 -4.518563 2.931165 -17.926260 -1.630382 1.080701 -14.202761 1.397414 -0.167811 33.281555 -3.582200 0.027157 -13.725516 -13.189672 -3.762996 -56.706348 -27.654757 6.890233 -48.963779 7.454722 7.741672 8.524705 12.647240 -44.837288 8.354301 9.292459 -1.514610 72.335335 17.860558 7.789507 50.488331 -7.819206 8.358334 -8.534408 -12.637552 15.521343 -8.611212 2.889471 11.763065 14.415297 -5.938415 -2.729378 -18.610746 -1.809063 -3.407974 -15.893792 -14.427816 -9.632600 60.865067 2.636844 8.195116 -14.788452 -8.645333 0.913120 
-18.106070 52.957954 -0.110757 2.764266 -7.839972 82.984039 10.541986 -4.027544 2.471330 -17.760025 -1.645012 0.909207 -14.406651 1.170247 -0.034340 33.474648 -3.207675 0.329781 -13.725516 -13.189672 -3.762996 -56.466251 -28.679113 6.920911 -49.099094 7.486639 7.790285 8.524705 12.647240 -44.251358 8.354301 9.292459 -1.514610 72.091042 18.208548 7.887922 50.686180 -7.859421 8.439375 -8.534408 -12.637552 15.872904 -7.576458 2.899469 11.438664 14.060057 -5.927337 -2.695427 -19.054953 -1.943207 -3.466249 -16.981091 -13.992688 -9.260318 59.936939 2.744199 8.103695 -16.846533 -8.566737 0.540772 
-17.647402 52.975513 -0.187362 2.595109 -7.623796 83.340538 10.846083 -3.687402 2.035645 -17.652576 -1.590610 0.762273 -14.310553 1.435858 0.021060 33.069931 -3.591252 0.389116 -13.725516 -13.189672 -3.762996 -56.282475 -29.585665 7.070714 -49.464142 7.576188 7.935763 8.524705 12.647240 -43.382214 8.354301 9.292459 -1.514610 71.811028 18.481785 8.255267 50.938141 -7.917829 8.538764 -8.534408 -12.637552 16.390484 -6.656214 2.790229 11.224738 13.780186 -5.938034 -2.652440 -19.500948 -2.084577 -3.485082 -18.231352 -13.651371 -8.693018 58.733971 2.880977 8.004375 -18.741039 -8.679744 0.133834 
-17.192244 52.991470 -0.265242 2.672361 -7.509153 83.644012 11.012796 -3.634752 1.610721 -17.691727 -1.516025 0.649698 -14.427583 1.405326 0.056027 33.311157 -3.511996 0.477614 -13.725516 -13.189672 -3.762996 -56.141705 -30.179512 7.559736 -50.089302 7.718948 8.192078 8.524705 12.647240 -42.093151 8.354301 9.292459 -1.514610 71.586464 18.545971 8.653537 51.199623 -7.973500 8.648952 -8.534408 -12.637552 16.859230 -5.823121 2.416644 11.037119 13.526154 -5.935083 -2.619453 -19.845253 -2.223119 -3.545277 -19.665314 -13.591410 -7.977097 57.276199 3.027577 7.877268 -20.314388 -8.826632 -0.264914 
-16.732937 52.979660 -0.315674 2.504726 -7.418496 83.991928 11.184393 -3.314346 1.289217 -17.750359 -1.470673 0.536092 -14.495902 1.395915 0.056678 33.360073 -3.512207 0.474941 -13.725516 -13.189672 -3.762996 -56.004482 -30.693640 8.298630 -50.831448 7.884807 8.490945 8.524705 12.647240 -40.511120 8.354301 9.292459 -1.514610 71.348053 18.578375 8.899758 51.377258 -8.008960 8.721939 -8.534408 -12.637552 17.005718 -5.104703 2.409924 10.888007 13.339945 -5.947283 -2.584427 -20.176161 -2.337868 -3.558084 -20.886005 -13.181605 -7.180175 55.337227 3.242159 7.702910 -21.347979 -9.093682 -0.575431 
-16.279057 52.966896 -0.364828 2.384159 -7.392910 84.339943 11.285943 -3.058243 1.020753 -17.799141 -1.475328 0.439335 -14.281679 1.502273 0.045255 32.777679 -3.674281 0.416889 -13.725516 -13.189672 -3.762996 -55.891270 -31.213367 8.964703 -51.648666 8.059623 8.823924 8.524705 12.647240 -38.987679 8.354301 9.292459 -1.514610 71.212944 18.517931 9.066578 51.598164 -8.058527 8.811452 -8.534408 -12.637552 17.083841 -4.476744 2.348561 10.770079 13.222603 -5.947132 -2.563070 -20.586882 -2.306099 -3.553622 -22.078503 -12.801752 -6.352158 53.092426 3.476617 7.496550 -22.186531 -9.349934 -0.867099 
-15.829325 52.950939 -0.411429 2.324830 -7.324701 84.688263 11.435394 -2.859004 0.773074 -17.808783 -1.520326 0.359231 -14.436645 1.289690 0.115779 32.951496 -3.228279 0.642488 -13.725516 -13.189672 -3.762996 -55.744873 -31.715714 9.751177 -52.614494 8.251747 9.216881 8.524705 12.647240 -37.307999 8.354301 9.292459 -1.514610 71.110672 18.492256 9.247866 51.807106 -8.097712 8.895741 -8.534408 -12.637552 17.415874 -3.852211 2.221757 10.561297 13.185831 -5.957686 -2.561546 -20.821299 -2.069620 -3.441289 -23.171314 -12.518008 -5.494446 50.639679 3.720712 7.240258 -23.042971 -9.343525 -1.069670 
-15.374487 52.926678 -0.452285 2.371994 -7.242400 85.067482 11.586213 -2.782025 0.457196 -17.769701 -1.506124 0.261122 -14.369267 1.452819 0.085716 32.595371 -3.460319 0.541080 -13.725516 -13.189672 -3.762996 -55.617172 -32.182037 10.696872 -53.656628 8.446853 9.658556 8.524705 12.647240 -35.413464 8.354301 9.292459 -1.514610 70.943459 18.506046 9.344334 51.922508 -8.120272 8.936238 -8.534408 -12.637552 17.767435 -3.190056 1.959591 10.363399 13.176023 -5.954991 -2.570132 -21.163280 -2.030088 -3.417139 -24.117340 -12.400229 -4.663314 47.967258 3.964723 6.966038 -23.523911 -9.152511 -1.129368 
-14.905926 52.887417 -0.484203 2.199346 -7.033035 85.481277 11.889545 -2.475244 0.263565 -17.769587 -1.551142 0.180737 -14.544787 1.403302 0.083765 32.786900 -3.281860 0.588298 -13.725516 -13.189672 -3.762996 -55.490917 -32.638756 11.631804 -54.689819 8.619810 10.090116 8.524705 12.647240 -33.577526 8.354301 9.292459 -1.514610 70.842392 18.530048 9.027145 51.943951 -8.128076 8.956237 -8.534408 -12.637552 17.650251 -2.427289 2.006311 10.230465 13.194852 -5.937798 -2.550780 -22.582888 -2.637351 -3.595017 -24.651747 -12.057248 -3.895355 45.033798 4.245023 6.636202 -23.577486 -9.015448 -1.092759 
-14.427785 52.859650 -0.505907 2.188962 -6.885210 85.904724 12.057306 -2.377029 0.059432 -17.662052 -1.577814 0.117843 -14.496889 1.544746 0.008135 32.482189 -3.544208 0.385246 -13.725516 -13.189672 -3.762996 -55.337036 -33.119743 12.562583 -55.758129 8.787247 10.548288 8.524705 12.647240 -31.888073 8.354301 9.292459 -1.514610 70.805328 18.633171 8.445780 51.849274 -8.106161 8.905828 -8.534408 -12.637552 17.308453 -1.777227 1.884535 10.084962 13.339975 -5.947222 -2.584420 -23.080219 -2.826192 -3.654854 -25.220510 -11.921927 -3.098063 41.928230 4.491816 6.286827 -23.369883 -8.963480 -1.017858 
-13.936560 52.827728 -0.519632 2.225903 -6.804797 86.361542 12.088961 -2.321298 -0.172007 -17.525232 -1.594020 0.044789 -14.476889 1.477949 -0.054755 32.405632 -3.487359 0.244916 -13.725516 -13.189672 -3.762996 -55.229053 -33.510105 13.437958 -56.860096 8.939434 11.017873 8.524705 12.647240 -30.345106 8.354301 9.292459 -1.514610 70.734734 18.592619 7.974457 51.765141 -8.088612 8.874554 -8.534408 -12.637552 17.161968 -1.187464 1.720882 9.869586 13.541533 -5.949659 -2.612005 -23.459095 -2.950760 -3.682080 -25.719170 -11.883262 -2.288597 38.676071 4.745630 5.907249 -22.872154 -8.956904 -0.888398 
-13.431292 52.784641 -0.531123 2.286594 -6.675298 86.822235 12.158904 -2.287373 -0.358359 -17.456800 -1.610964 -0.006917 -14.417192 1.309679 -0.080470 32.400837 -3.211465 0.219608 -13.725516 -13.189672 -3.762996 -55.209225 -33.849678 14.241203 -57.847187 9.060463 11.448647 8.524705 12.647240 -28.987682 8.354301 9.292459 -1.514610 70.646584 18.371296 7.524724 51.744606 -8.087380 8.873324 -8.534408 -12.637552 17.054544 -0.534244 1.544162 9.707323 13.737616 -5.937419 -2.657630 -23.896132 -3.081858 -3.716605 -26.037939 -11.920909 -1.511070 35.314083 5.004929 5.479860 -21.703720 -9.015294 -0.637547 
-12.914531 52.732933 -0.535273 2.328432 -6.546995 87.297028 12.189063 -2.232208 -0.479526 -17.300421 -1.637994 -0.051960 -14.474868 1.150660 -0.111499 32.428329 -3.029087 0.142246 -13.725516 -13.189672 -3.762996 -55.190002 -34.321140 14.972117 -58.707355 9.150331 11.818986 8.524705 12.647240 -27.659557 8.354301 9.292459 -1.514610 70.537361 18.216005 6.994246 51.671379 -8.073008 8.843044 -8.534408 -12.637552 16.898296 0.126813 1.403908 9.564490 13.940036 -5.937540 -2.656754 -24.404158 -3.258784 -3.785774 -26.287506 -11.982024 -0.782327 31.932934 5.204848 5.080834 -19.745502 -9.118547 -0.198390 
-12.384685 52.675476 -0.533358 2.372500 -6.497076 87.769608 12.131138 -2.163535 -0.609097 -17.104906 -1.684220 -0.099451 -14.601058 1.012352 -0.179232 32.566429 -2.975349 -0.009137 -13.725516 -13.189672 -3.762996 -55.131763 -34.794128 15.667151 -59.537804 9.232055 12.199792 8.524705 12.647240 -26.282606 8.354301 9.292459 -1.514610 70.400978 18.106024 6.432462 51.524944 -8.043941 8.781283 -8.534408 -12.637552 16.751812 0.740321 1.274530 9.423569 14.109452 -5.938197 -2.671780 -24.887144 -3.413782 -3.830448 -26.487396 -12.067681 -0.009513 28.513889 5.414568 4.624731 -17.546787 -9.152020 0.252667 
-11.822919 52.598877 -0.487395 2.318989 -6.400370 88.250580 12.004181 -2.108334 -0.691444 -16.938925 -1.643108 -0.131124 -14.464257 1.028697 -0.271446 32.522812 -3.088565 -0.220521 -13.725516 -13.189672 -3.762996 -55.124939 -35.056038 16.451441 -60.421227 9.300587 12.581223 8.524705 12.647240 -24.847059 8.354301 9.292459 -1.514610 70.303070 17.883266 5.670569 51.305134 -8.000142 8.698134 -8.534408 -12.637552 16.283062 1.353297 1.342023 9.424625 14.330937 -5.937966 -2.721341 -25.454008 -3.478719 -3.843915 -26.493074 -12.001417 1.039873 24.918322 5.571165 4.171788 -16.069300 -9.515269 0.475862 
